<?xml version="1.0" encoding="utf-8"?>
<!-- Generator: Adobe Illustrator 25.4.1, SVG Export Plug-In . SVG Version: 6.00 Build 0)  -->
<svg version="1.1" id="Calque_1" xmlns="http://www.w3.org/2000/svg" xmlns:xlink="http://www.w3.org/1999/xlink" x="0px" y="0px"
	 viewBox="0 0 2500 2500" style="enable-background:new 0 0 2500 2500;" xml:space="preserve">
<style type="text/css">
	.st0{fill-rule:evenodd;clip-rule:evenodd;}
	.st1{fill-rule:evenodd;clip-rule:evenodd;fill:#FFFFFF;}
</style>
<g>
	<path class="st0" d="M1250.4,2500c689.5,0,1248.4-558.7,1248.4-1247.9c0-689.2-559-1247.9-1248.4-1247.9
		C560.9,4.1,2,562.9,2,1252.1C2,1941.3,560.9,2500,1250.4,2500z"/>
	<path class="st1" d="M1225.8,1238.2c0,261.8-212.3,474.1-474.3,474.1S277.2,1500,277.2,1238.2L277.1,830h218.8v408.2
		c0,141.1,114.4,255.5,255.6,255.5s255.6-114.4,255.6-255.5V295l218.8-222.3L1225.8,1238.2z M1498.2,1639.4
		c73.8,47.5,158.2,75.1,252.5,75.1c261.3,0,473.1-211.7,473.1-472.9c0-261.1-211.8-472.9-473.1-472.9s-473.1,211.7-473.1,472.9
		v1189.9l219.4-229.3L1498.2,1639.4L1498.2,1639.4z"/>
	<path class="st0" d="M1757.8,1511.5c140.5,0,254.4-113.8,254.4-254.3c0-140.4-113.9-254.2-254.4-254.2
		c-140.5,0-254.4,113.8-254.4,254.2C1503.5,1397.7,1617.4,1511.5,1757.8,1511.5z"/>
</g>
</svg>
